<?xml version="1.0" standalone="no"?>
<!DOCTYPE svg PUBLIC "-//W3C//DTD SVG 20010904//EN"
 "http://www.w3.org/TR/2001/REC-SVG-20010904/DTD/svg10.dtd">
<svg version="1.0" xmlns="http://www.w3.org/2000/svg"
 width="512.000000pt" height="512.000000pt" viewBox="0 0 512.000000 512.000000"
 preserveAspectRatio="xMidYMid meet">
<metadata>
Created by potrace 1.16, written by Peter Selinger 2001-2019
</metadata>
<g transform="translate(0.000000,512.000000) scale(0.100000,-0.100000)"
fill="#000000" stroke="none">
<path d="M2381 4909 c-331 -37 -673 -173 -915 -364 -150 -117 -351 -346 -382
-434 -9 -25 -40 -95 -70 -156 -32 -65 -64 -150 -79 -209 -24 -94 -55 -295 -55
-356 0 -16 -16 -56 -36 -89 l-36 -60 11 -123 c22 -237 62 -474 118 -693 19
-77 42 -153 51 -170 8 -16 16 -46 17 -66 3 -53 44 -135 158 -314 113 -179 201
-277 256 -288 108 -22 323 1 431 46 19 8 46 18 60 22 23 6 22 5 -5 -13 -35
-22 -125 -111 -125 -124 0 -11 11 -10 143 7 128 17 154 25 397 124 179 74 266
119 450 232 312 193 538 291 710 309 l75 7 -70 2 c-151 3 -387 -88 -686 -265
-202 -119 -175 -96 96 82 250 163 697 479 768 543 61 55 298 408 376 560 28
55 54 101 57 101 10 0 90 -44 151 -82 70 -44 68 -40 102 -213 11 -55 43 -198
71 -318 l51 -218 -16 -57 c-29 -99 -120 -264 -176 -318 -27 -27 -54 -48 -58
-47 -5 1 -17 -8 -27 -20 l-19 -22 25 20 25 20 -19 -22 c-10 -13 -23 -20 -27
-17 -16 9 -139 -86 -145 -113 -4 -13 0 -42 9 -64 15 -37 14 -39 -3 -39 -26 0
-217 -82 -316 -136 -98 -52 -124 -81 -194 -208 -29 -52 -63 -104 -74 -114 -12
-11 -131 -86 -266 -167 -474 -287 -597 -353 -790 -425 -63 -24 -176 -70 -250
-103 -158 -69 -180 -78 -180 -72 0 3 64 37 142 76 126 63 268 145 268 154 0 2
-75 -33 -167 -77 -193 -92 -365 -169 -370 -164 -12 12 104 94 199 142 215 108
472 254 447 254 -12 0 -107 -44 -369 -170 -388 -187 -780 -328 -780 -281 0 13
150 211 159 211 4 0 13 24 21 52 24 97 68 192 101 220 63 53 326 227 419 276
52 28 140 68 195 90 55 22 112 46 127 53 16 7 51 48 84 96 90 133 122 160 292
247 84 42 152 75 152 73 0 -2 -34 -30 -75 -62 -42 -32 -74 -60 -71 -62 11 -12
159 83 357 228 187 138 305 213 320 203 7 -4 10 -3 7 2 -3 5 94 71 217 148
245 153 318 204 354 248 l24 30 -59 -33 c-32 -18 -139 -83 -236 -145 -240
-154 -452 -279 -708 -419 -441 -242 -417 -227 -635 -394 -53 -41 -228 -162
-388 -270 -455 -306 -434 -287 -497 -455 -30 -80 -56 -128 -99 -185 -83 -109
-101 -141 -101 -183 0 -50 36 -78 99 -78 25 0 138 12 251 26 230 28 594 43
550 22 -14 -6 -65 -31 -115 -54 -49 -23 -99 -50 -110 -58 -20 -16 -19 -16 5
-11 14 3 120 21 235 40 452 76 1113 248 1355 351 188 80 855 442 775 420 -78
-21 -408 -120 -451 -136 -30 -10 -54 -16 -54 -13 0 23 156 169 325 304 112 90
206 169 209 176 9 21 -88 154 -188 260 -53 55 -96 105 -96 110 0 4 65 71 144
148 l144 140 61 125 c33 69 65 149 71 178 11 62 9 75 -64 380 -30 125 -58 252
-62 282 -13 106 -35 135 -160 211 -98 59 -130 67 -174 44 -17 -9 -34 -14 -36
-12 -3 2 5 43 17 91 20 81 21 89 6 124 -9 20 -21 69 -28 109 -11 66 -10 76 10
122 11 27 21 58 21 68 0 10 -29 65 -64 123 l-64 104 73 78 c40 42 94 114 120
160 128 222 143 243 220 319 74 73 78 80 63 95 -28 29 -178 40 -352 26 -83 -7
-170 -17 -194 -23 -41 -11 -45 -10 -170 54 -207 106 -391 166 -617 202 -120
19 -549 28 -674 14z m522 -46 c37 -3 64 -9 60 -13 -4 -4 -39 -18 -78 -30 -159
-52 -260 -127 -441 -330 -126 -141 -164 -191 -209 -280 -42 -82 -56 -95 -186
-164 -105 -56 -195 -114 -187 -122 20 -19 352 160 404 217 18 20 17 20 -20 -2
-35 -20 -37 -21 -28 -3 5 10 25 50 43 88 41 88 166 221 259 277 148 88 442
189 550 189 51 0 126 -18 214 -50 l58 -22 -28 -28 c-30 -29 -103 -72 -309
-181 -135 -72 -402 -246 -515 -336 -110 -87 -200 -203 -279 -361 -35 -68 -95
-231 -88 -238 2 -2 39 5 83 17 43 11 110 23 147 26 60 5 72 3 97 -16 16 -11
37 -21 46 -21 21 0 330 159 391 201 148 103 271 67 360 -104 23 -44 28 -64 28
-132 0 -98 -16 -146 -67 -201 -87 -94 -196 -80 -306 40 -68 75 -96 148 -89
236 2 36 10 76 16 89 16 29 24 21 12 -11 -5 -14 -11 -45 -13 -69 -3 -43 -2
-44 30 -47 28 -3 32 0 32 22 0 13 4 36 10 51 8 22 6 29 -23 55 l-32 28 -31
-19 c-71 -43 -280 -142 -355 -166 l-81 -27 44 -13 c52 -15 118 -57 147 -95 27
-34 101 -183 101 -203 0 -9 -9 -15 -25 -15 -13 0 -36 -5 -51 -12 -23 -11 -28
-10 -40 7 -8 10 -14 34 -14 52 0 76 -56 146 -129 158 -53 9 -177 -14 -433 -79
-290 -74 -271 -64 -263 -129 6 -53 11 -83 21 -127 3 -14 12 -63 20 -110 8 -47
21 -118 29 -158 9 -41 13 -77 10 -82 -11 -17 329 131 497 217 79 40 112 63
128 87 21 35 26 95 10 126 -7 13 -5 21 6 31 20 16 40 -2 29 -28 -4 -10 -7 -28
-6 -41 4 -38 -19 -90 -53 -120 -50 -44 -446 -231 -650 -307 -181 -67 -274 -48
-316 63 -25 66 -64 232 -82 345 l-11 77 -149 0 c-120 0 -148 -3 -148 -14 0
-30 44 -155 81 -229 42 -84 81 -145 137 -215 l35 -43 -39 -32 c-79 -64 -162
-149 -175 -178 -17 -41 0 -56 80 -71 86 -16 217 1 365 49 l116 37 -38 22 -38
23 -90 -31 c-114 -40 -231 -49 -281 -23 -18 10 -33 24 -33 31 0 15 152 166
159 158 3 -2 -23 -33 -58 -68 -68 -68 -74 -91 -31 -114 34 -18 118 -9 231 25
80 24 88 29 73 40 -10 7 -30 13 -46 13 -15 0 -28 5 -28 11 0 20 62 3 124 -35
33 -20 66 -36 74 -36 29 0 583 254 762 350 156 83 180 120 180 280 0 46 4 70
11 70 15 0 3 -182 -15 -225 -7 -16 -26 -43 -42 -59 -50 -49 -680 -352 -949
-455 -161 -62 -220 -75 -355 -76 -69 0 -137 3 -152 8 -37 10 -38 -16 -2 -39
39 -26 204 -23 319 6 155 39 501 188 903 389 100 50 182 89 182 86 0 -8 -372
-192 -584 -289 -414 -191 -541 -230 -726 -224 -93 2 -122 7 -149 23 -19 11
-37 27 -39 35 -4 11 0 11 21 -3 40 -26 44 -20 10 15 -25 27 -36 56 -61 158
-45 179 -80 368 -102 554 -11 88 -22 176 -25 195 -4 33 24 108 32 84 2 -7 0
-21 -6 -32 -15 -28 -15 -28 28 -50 65 -33 159 -44 345 -38 178 5 185 6 446 80
l86 24 -4 -35 c-4 -30 -2 -34 13 -28 32 12 327 84 432 105 209 43 286 17 324
-107 7 -23 16 -42 21 -42 8 0 47 18 56 25 8 7 -52 110 -85 146 -98 109 -172
111 -533 15 -140 -37 -307 -82 -371 -101 -63 -18 -150 -38 -193 -44 -96 -14
-321 -14 -400 -1 -54 9 -96 31 -96 52 0 4 51 5 113 2 115 -7 371 9 442 27 48
12 605 290 605 303 0 26 -112 -17 -350 -134 l-265 -130 -140 -15 c-164 -17
-308 -18 -385 -2 -51 11 -55 14 -58 42 l-4 30 24 -22 c36 -34 107 -47 222 -40
166 9 168 10 259 162 178 296 269 409 415 515 37 27 57 47 50 51 -6 4 0 7 13
7 22 -1 125 34 137 47 3 3 -5 17 -19 32 -24 26 -10 23 23 -5 15 -13 24 -10 83
24 36 21 64 43 62 48 -4 12 -46 22 -132 31 l-60 7 25 22 c14 11 46 38 70 59
42 36 43 37 11 22 -38 -19 -123 -94 -117 -104 2 -3 -46 -26 -106 -51 -125 -50
-192 -102 -257 -199 -55 -82 -58 -91 -14 -44 32 34 54 46 123 67 109 32 140
40 140 32 0 -3 -15 -13 -32 -22 -51 -26 -117 -79 -193 -154 -67 -67 -162 -203
-274 -395 -56 -96 -71 -104 -217 -104 -137 -1 -139 1 -139 158 0 64 6 141 14
171 23 95 73 264 86 290 12 23 13 21 8 -22 -10 -90 14 -118 103 -118 93 0 256
76 315 146 20 25 2 15 -43 -23 -23 -20 -62 -45 -86 -55 -52 -24 -172 -47 -206
-41 -51 10 -51 24 -7 153 44 129 68 181 112 246 l28 42 45 -16 c39 -14 58 -15
153 -4 59 7 119 15 132 19 22 6 20 1 -21 -53 -49 -64 -98 -139 -98 -151 0 -4
38 45 85 108 l85 114 63 16 c86 22 100 30 202 128 148 142 294 225 526 299
100 32 276 71 326 73 15 0 37 5 48 10 13 6 -36 8 -140 5 -132 -4 -189 -11
-327 -40 -168 -36 -298 -74 -347 -102 -16 -9 -18 -13 -6 -9 11 3 54 17 95 30
41 13 86 26 100 29 l25 6 -25 -11 c-252 -116 -340 -172 -485 -309 -105 -99
-134 -119 -65 -45 l55 59 -57 -47 -56 -47 -108 -7 -108 -6 23 31 c49 70 124
96 243 83 l67 -7 46 39 c25 21 45 43 45 49 0 11 -235 6 -280 -7 -23 -6 -22 -4
10 24 150 133 508 266 810 300 92 10 420 13 513 4z m458 -89 c30 -9 71 -23 91
-31 l38 -15 -23 -18 c-49 -38 -57 -39 -176 -16 l-114 22 44 37 c48 42 63 44
140 21z m240 -105 c37 -18 39 -22 27 -39 -7 -10 -53 -79 -103 -152 -101 -151
-240 -298 -398 -422 -54 -43 -96 -83 -94 -89 3 -12 56 -55 107 -88 24 -16 23
-16 -55 -34 -79 -17 -185 -53 -396 -134 -109 -42 -448 -151 -469 -151 -27 0 9
24 113 76 112 56 323 180 333 195 5 8 -68 -24 -291 -130 -70 -34 -130 -61
-132 -61 -8 0 53 111 103 186 72 109 121 152 380 330 229 157 313 211 530 339
72 42 164 103 205 135 41 33 80 59 87 59 7 1 31 -8 53 -20z m699 -47 l45 -7
-100 -59 c-171 -102 -324 -210 -483 -341 -150 -124 -181 -157 -108 -114 55 32
37 2 -38 -64 -35 -31 -90 -95 -122 -142 -31 -47 -61 -85 -66 -85 -25 0 -13 41
51 168 l70 140 -37 -10 c-20 -6 -77 -28 -126 -49 -49 -21 -83 -32 -75 -25 8 7
77 67 154 133 77 66 148 129 157 139 12 14 18 41 20 94 l3 75 85 57 c47 31
103 62 125 67 86 23 352 37 445 23z m-2843 -160 c-26 -27 -45 -51 -42 -54 4
-3 1 -9 -6 -14 -8 -4 -10 -3 -5 4 4 7 3 12 -2 12 -13 0 -72 -67 -72 -82 0 -5
-15 -31 -34 -57 -48 -66 -70 -114 -111 -240 -20 -62 -39 -111 -41 -108 -3 3 2
42 11 86 10 45 14 85 11 88 -3 4 -17 -4 -31 -17 -21 -20 -25 -21 -25 -6 0 15
25 70 49 106 9 13 12 12 25 -5 15 -20 15 -20 16 3 0 13 14 44 32 70 38 57 257
277 265 268 4 -4 -14 -28 -40 -54z m2508 -221 c-48 -93 -89 -153 -163 -240
-41 -48 -42 -51 -20 -51 13 0 38 4 55 9 32 9 33 9 84 -67 46 -69 51 -81 46
-119 -6 -59 -91 -223 -141 -275 -32 -33 -242 -209 -324 -271 -28 -22 -21 8 37
143 65 149 114 301 151 463 22 94 25 100 92 180 46 55 88 119 125 195 51 103
93 158 101 133 2 -6 -18 -51 -43 -100z m-1994 -88 c13 -16 12 -17 -3 -4 -17
13 -22 21 -14 21 2 0 10 -8 17 -17z m1809 -28 c0 -23 -53 -78 -101 -104 l-44
-24 20 24 c17 22 117 118 123 119 1 0 2 -7 2 -15z m-76 -176 c-39 -42 -104
-93 -110 -87 -11 12 13 41 69 83 67 50 87 52 41 4z m-2649 -61 c-8 -37 -44
-130 -52 -138 -13 -11 7 99 23 133 22 46 38 48 29 5z m2261 -120 c77 -51 161
-114 188 -140 45 -44 48 -50 44 -86 -7 -48 -178 -427 -265 -587 -124 -226
-312 -521 -381 -597 -19 -21 -74 -62 -121 -90 -100 -59 -411 -222 -411 -215 0
3 26 24 58 48 31 24 79 64 106 89 48 44 376 424 376 435 0 10 -45 -17 -175
-110 -303 -213 -518 -320 -811 -403 -103 -29 -102 -28 -133 -142 l-9 -35 -1
31 c-2 53 27 128 61 161 18 17 116 85 218 151 343 221 450 292 450 298 0 17
-635 -385 -687 -435 -13 -12 -29 -34 -37 -49 -19 -37 -46 -174 -46 -232 0 -42
4 -52 36 -79 39 -34 35 -34 134 2 54 20 566 277 790 396 63 34 106 53 95 42
-51 -50 -808 -447 -935 -490 -81 -28 -227 -39 -252 -19 -16 12 -15 27 19 225
27 162 33 216 24 226 -6 8 -40 22 -76 32 -36 9 -67 21 -70 25 -3 5 39 25 92
46 236 90 822 369 1019 485 222 131 527 349 592 425 23 27 57 78 75 114 29 59
32 73 32 160 0 78 -4 102 -22 135 -51 97 -148 173 -252 199 l-46 12 85 31 c47
17 88 31 91 32 4 0 69 -41 145 -91z m-2339 -165 c-1 -147 2 -185 15 -215 21
-46 10 -48 -38 -6 l-36 32 6 70 c7 73 46 296 52 296 1 0 2 -80 1 -177z m3003
-80 c0 -12 7 -43 16 -69 15 -46 15 -50 -11 -130 -34 -105 -94 -197 -233 -355
-132 -151 -275 -287 -396 -378 -92 -69 -310 -219 -378 -260 -68 -41 -40 -13
60 60 119 88 153 119 145 133 -3 6 -3 8 1 4 15 -13 318 224 411 323 l50 52
-55 -45 c-66 -54 -281 -215 -330 -247 l-35 -22 29 23 c16 13 84 68 149 123 66
55 140 116 163 135 24 19 43 38 44 43 0 4 -30 7 -66 7 l-67 0 69 56 c107 87
107 87 55 82 l-45 -4 100 94 c54 52 154 135 221 185 67 50 121 93 119 95 -2 2
-36 -13 -76 -33 -40 -20 -83 -41 -97 -46 -24 -9 -23 -7 11 38 20 27 58 78 84
114 46 65 62 71 62 22z m-1224 -66 c1 -76 6 -103 27 -157 36 -85 72 -135 130
-182 55 -43 82 -47 145 -18 23 10 42 17 42 15 0 -8 -74 -42 -105 -49 -22 -5
-34 -15 -42 -35 -11 -30 -80 -81 -108 -81 -9 0 -25 -5 -36 -10 -14 -8 -19 -7
-19 2 0 6 -7 3 -15 -8 -13 -17 -13 -15 -3 18 6 21 15 35 19 32 5 -2 6 -11 2
-19 -6 -17 -2 -18 22 -9 9 4 12 10 7 13 -5 3 -12 27 -15 53 -6 42 -4 49 20 67
14 12 36 21 49 21 31 0 58 -41 50 -75 -4 -14 -2 -25 4 -25 5 0 13 12 16 27 6
23 -1 33 -52 82 -33 31 -70 70 -82 86 -20 28 -21 28 -22 8 0 -30 -35 -181 -65
-279 -29 -94 -55 -125 -146 -174 -32 -17 -59 -29 -59 -26 0 3 18 15 40 26 84
43 117 84 149 184 16 50 39 137 52 193 l23 103 -23 72 c-28 85 -37 173 -22
211 6 15 12 27 13 27 2 0 3 -42 4 -93z m41 -449 c-3 -8 -6 -5 -6 6 -1 11 2 17
5 13 3 -3 4 -12 1 -19z m743 -363 c-12 -14 -115 -89 -150 -109 -32 -19 8 16
81 69 80 58 88 63 69 40z m-370 -130 c0 -2 -10 -9 -22 -15 -22 -11 -22 -10 -4
4 21 17 26 19 26 11z m-85 -55 c-3 -5 -20 -19 -38 -30 -32 -22 -32 -22 3 9 37
32 45 37 35 21z m-42 -218 c-16 -20 -86 -75 -155 -122 -126 -85 -183 -116
-420 -229 -70 -34 -143 -75 -161 -91 -34 -30 -65 -85 -54 -97 3 -3 47 11 97
31 92 37 115 43 106 27 -7 -11 -209 -91 -230 -91 -12 0 -13 6 -4 33 6 17 15
38 21 45 36 46 -47 -4 -199 -120 -60 -45 -120 -68 -105 -40 20 37 151 152 231
204 47 30 204 116 350 190 273 139 353 184 474 269 76 54 96 50 49 -9z m-1901
-210 c8 -9 29 -44 48 -77 37 -69 96 -154 119 -172 21 -18 120 -17 127 1 3 8
-6 47 -20 86 -14 39 -26 78 -26 87 0 9 34 51 75 94 41 42 75 74 75 70 0 -3
-29 -40 -65 -80 -36 -41 -65 -82 -65 -91 0 -9 11 -50 25 -91 24 -69 24 -75 8
-86 -17 -13 -92 -17 -128 -7 -26 7 -71 66 -179 233 -61 96 -86 143 -86 165 0
28 5 23 39 -42 22 -41 46 -81 53 -90z m347 153 c-22 -21 -361 -47 -372 -27 -3
4 50 8 116 9 67 1 142 6 167 11 50 11 96 15 89 7z m749 -92 c-88 -121 -120
-150 -239 -215 -144 -79 -174 -91 -188 -74 -9 11 -6 12 14 8 17 -3 54 13 127
54 160 89 171 99 258 210 44 57 83 104 86 104 2 0 -24 -39 -58 -87z m-877 28
c-9 -6 -12 -21 -9 -44 4 -36 4 -36 -45 -47 -26 -5 -58 -10 -71 -10 -29 0 -72
33 -91 71 l-15 28 107 4 c60 1 115 4 123 5 12 1 12 0 1 -7z m153 -106 c-9 -13
-22 -44 -30 -67 l-14 -43 4 38 c3 20 14 51 26 67 26 36 37 40 14 5z m1146
-160 c0 -2 -10 -9 -22 -15 -22 -11 -22 -10 -4 4 21 17 26 19 26 11z m-1140
-147 c-20 -17 -36 -19 -87 -16 -35 2 -68 9 -75 16 -9 9 -4 9 23 2 63 -18 149
-5 149 23 0 6 3 7 8 3 4 -4 -4 -17 -18 -28z m2655 -121 c114 -119 153 -172
138 -195 -11 -18 -243 -206 -330 -268 l-52 -37 -170 23 c-93 13 -176 20 -184
17 -8 -3 -53 -50 -101 -105 -156 -182 -223 -239 -342 -288 -38 -16 -39 -16
-23 2 33 39 34 50 4 29 -124 -81 -333 -190 -420 -219 -28 -9 -104 -31 -170
-50 -66 -18 -129 -36 -140 -40 -12 -4 -6 4 14 21 19 15 70 58 113 94 43 36
127 95 188 130 172 100 332 204 508 329 288 205 295 207 483 190 63 -5 132
-13 154 -15 35 -5 46 -1 84 30 69 55 74 68 82 184 l6 105 47 41 47 40 -32 24
c-32 24 -33 24 -80 8 -26 -10 -110 -47 -186 -83 -76 -37 -142 -69 -148 -71 -5
-2 -1 3 10 12 57 47 348 184 390 185 11 0 56 -38 110 -93z m-585 -648 c25 -17
36 -28 25 -25 -11 3 -53 -5 -93 -19 -41 -14 -77 -25 -80 -25 -3 0 16 23 43 50
27 28 52 50 55 50 3 0 25 -14 50 -31z m200 -63 c0 -3 -26 -12 -57 -21 -32 -9
-165 -50 -296 -91 -131 -42 -241 -74 -243 -71 -5 4 299 148 364 172 33 12 232
22 232 11z m-1372 -297 c-40 -20 -157 -54 -164 -46 -3 2 33 18 78 35 96 36
144 42 86 11z m-181 -55 c-3 -3 -12 -4 -19 -1 -8 3 -5 6 6 6 11 1 17 -2 13 -5z
m-437 -28 c-55 -52 -415 -165 -442 -138 -8 8 -3 12 18 17 120 25 351 97 409
127 42 22 43 21 15 -6z m115 -65 c-13 -11 -74 -31 -94 -31 -22 1 59 38 84 39
11 1 15 -3 10 -8z"/>
<path d="M2571 4702 c-35 -21 -82 -53 -103 -72 -36 -32 -39 -39 -36 -76 l3
-42 115 114 c63 63 108 114 100 113 -8 -1 -44 -17 -79 -37z"/>
<path d="M2226 4565 c-197 -119 -356 -246 -436 -350 -53 -68 -51 -81 2 -19 89
103 221 212 403 334 44 29 84 57 90 61 18 18 -2 8 -59 -26z"/>
<path d="M2504 4148 c-59 -63 -127 -141 -88 -103 45 44 157 165 153 165 -3 0
-32 -28 -65 -62z"/>
<path d="M2290 4019 c-74 -89 -161 -186 -195 -216 -71 -64 -406 -324 -479
-370 -27 -18 -45 -33 -39 -33 14 0 205 134 350 247 140 108 267 232 372 363
180 223 174 228 -9 9z"/>
<path d="M1087 3831 c-2 -10 -2 -31 1 -46 6 -35 22 -13 22 33 0 35 -15 44 -23
13z"/>
<path d="M2945 3698 c-45 -23 -75 -47 -75 -60 0 -4 9 -17 21 -29 l21 -21 31
30 c66 63 141 65 208 5 68 -61 86 -168 44 -256 -26 -55 -69 -82 -131 -82 -85
0 -155 61 -174 150 -4 23 -12 31 -33 33 -36 4 -36 -18 4 -96 47 -94 146 -172
218 -172 71 0 146 60 172 137 18 55 16 150 -4 210 -21 61 -88 140 -134 159
-47 20 -121 17 -168 -8z"/>
<path d="M2990 3631 c-103 -54 -118 -205 -29 -285 59 -54 126 -59 184 -15 86
68 68 240 -31 296 -48 28 -79 29 -124 4z m95 -81 c-2 -4 7 -17 20 -28 53 -46
14 -132 -59 -132 -93 0 -104 144 -13 168 33 9 60 5 52 -8z"/>
<path d="M3007 3522 c-21 -23 -22 -76 -1 -96 22 -23 70 -20 96 6 l22 22 -24 7
-25 6 24 10 23 9 -32 27 c-37 32 -61 34 -83 9z"/>
<path d="M1682 3601 c-111 -51 -132 -68 -170 -139 -43 -81 -40 -92 12 -44 24
22 57 47 72 55 25 13 187 168 174 166 -3 0 -42 -18 -88 -38z"/>
<path d="M1038 3559 c-14 -8 -18 -23 -18 -70 0 -54 3 -64 29 -90 24 -23 38
-29 75 -29 25 0 60 6 78 14 18 8 47 20 65 26 23 9 36 24 52 60 26 60 26 76 2
90 -25 13 -260 13 -283 -1z m272 -18 c0 -5 -36 -11 -80 -13 -60 -4 -85 -9
-101 -24 -22 -19 -22 -19 -10 4 11 21 10 22 -36 24 -42 1 -39 2 22 8 110 10
205 11 205 1z m-159 -76 c-22 -24 -41 -47 -41 -51 0 -3 16 -3 36 1 26 4 35 3
32 -6 -3 -10 -88 -20 -88 -11 0 15 28 53 58 79 51 45 52 41 3 -12z"/>
<path d="M876 3177 c42 -74 109 -92 344 -91 106 0 213 5 250 13 62 12 65 14
65 42 0 21 -4 28 -15 24 -97 -27 -378 -43 -493 -26 -43 6 -96 20 -117 30 -22
11 -37 14 -34 8z"/>
<path d="M2610 3130 c0 -5 5 -10 10 -10 6 0 10 5 10 10 0 6 -4 10 -10 10 -5 0
-10 -4 -10 -10z"/>
<path d="M2445 3070 c-3 -5 -1 -10 4 -10 6 0 11 5 11 10 0 6 -2 10 -4 10 -3 0
-8 -4 -11 -10z"/>
<path d="M3440 3352 c-36 -99 -157 -351 -230 -479 -22 -40 -39 -73 -36 -73 7
0 90 148 156 280 65 129 153 345 148 360 -2 5 -19 -35 -38 -88z"/>
<path d="M3140 2750 c-6 -11 -8 -20 -6 -20 3 0 10 9 16 20 6 11 8 20 6 20 -3
0 -10 -9 -16 -20z"/>
<path d="M3797 3239 c-97 -77 -127 -122 -101 -149 14 -13 21 -9 67 40 55 59
133 167 126 174 -2 3 -44 -27 -92 -65z"/>
<path d="M2831 3076 c-7 -8 -11 -32 -9 -53 3 -35 6 -38 36 -41 22 -2 34 2 38
12 3 9 9 14 13 12 11 -7 11 57 0 71 -15 17 -64 17 -78 -1z"/>
<path d="M4143 1509 c-36 -25 -43 -36 -51 -82 -20 -106 -32 -200 -28 -204 3
-3 18 3 35 13 32 19 33 22 46 129 6 42 14 57 50 92 l43 41 -22 21 c-12 12 -24
21 -27 21 -2 -1 -23 -14 -46 -31z"/>
<path d="M4164 2953 c-25 -54 -52 -114 -60 -133 l-14 -35 23 29 c37 50 135
220 130 228 -15 25 -38 -1 -79 -89z"/>
<path d="M4167 2778 c-37 -24 -114 -76 -172 -116 -96 -66 -104 -73 -83 -81 63
-23 57 -26 198 109 74 71 133 129 130 129 -3 1 -36 -18 -73 -41z"/>
<path d="M4232 2690 c-13 -33 -28 -89 -33 -125 -18 -129 -50 -179 -241 -371
-94 -96 -168 -174 -164 -174 22 0 120 71 224 162 31 27 58 44 60 38 6 -18 -79
-139 -148 -209 -36 -37 -98 -86 -138 -110 -40 -23 -128 -86 -195 -140 -281
-224 -438 -328 -583 -386 -85 -33 -97 -42 -159 -111 -36 -40 -87 -86 -113
-101 -26 -15 -126 -76 -222 -137 -224 -140 -424 -261 -523 -315 -42 -23 -77
-44 -77 -46 0 -11 206 95 515 265 152 85 322 169 435 217 183 77 186 79 270
159 47 44 175 154 285 244 110 90 217 178 237 196 21 18 81 63 135 99 54 36
159 115 233 176 74 60 179 140 232 177 53 36 96 68 95 69 -4 4 -136 -46 -177
-67 -22 -11 -40 -18 -40 -14 0 3 20 28 44 55 61 68 126 197 133 264 7 63 -15
247 -28 239 -5 -3 -9 -51 -9 -107 0 -90 -18 -208 -33 -223 -3 -3 -8 30 -12 73
-4 43 -12 81 -18 84 -6 4 1 38 18 88 32 96 30 116 -3 31z"/>
<path d="M3775 2229 c-124 -75 -315 -200 -315 -206 0 -9 143 76 278 164 122
81 152 103 140 103 -2 0 -48 -27 -103 -61z"/>
<path d="M3300 1959 c-106 -79 -155 -124 -70 -64 116 82 183 136 168 135 -2 0
-46 -32 -98 -71z"/>
<path d="M3360 1720 c-91 -66 -303 -212 -472 -325 -170 -113 -308 -208 -308
-211 0 -3 19 7 43 21 23 14 89 52 146 83 149 82 211 125 496 341 224 169 276
211 263 211 -2 0 -77 -54 -168 -120z"/>
<path d="M2550 1170 c-9 -6 -10 -10 -3 -10 6 0 15 5 18 10 8 12 4 12 -15 0z"/>
<path d="M2200 1116 c-30 -12 -105 -48 -167 -80 -104 -53 -118 -64 -205 -159
-135 -148 -188 -208 -199 -229 -9 -17 -7 -17 42 2 112 44 326 145 357 168 19
13 78 91 132 173 55 82 98 149 97 149 -1 -1 -27 -11 -57 -24z"/>
<path d="M1475 569 l-28 -51 49 28 c27 15 50 28 51 29 2 1 -8 11 -20 23 l-24
22 -28 -51z"/>
</g>
</svg>